<?xml version="1.0" encoding="UTF-8"?>
<svg version="1.1" xmlns="http://www.w3.org/2000/svg" width="2560" height="1723">
<path d="M0 0 C1.22493668 -0.00241196 2.44987335 -0.00482391 3.71192932 -0.00730896 C6.28951266 -0.00633415 8.8671179 0.00697105 11.44458008 0.03198242 C15.36417674 0.06627737 19.28151338 0.05262076 23.20117188 0.03320312 C25.71745741 0.04010309 28.23373717 0.04977683 30.75 0.0625 C32.4879911 0.0550602 32.4879911 0.0550602 34.26109314 0.04747009 C53.09559281 0.31664809 64.25648768 10.48616139 76.87744141 23.20849609 C78.15739916 24.48766177 79.43801128 25.76617296 80.71922302 27.04408264 C84.17836735 30.49811799 87.62815156 33.96136315 91.07614183 37.42652845 C94.69656017 41.06205206 98.32515126 44.68940152 101.95272827 48.31777954 C108.0418814 54.41061843 114.12538331 60.50905197 120.20507812 66.61132812 C127.9935539 74.42867419 135.79126464 82.2367398 143.591959 90.0418911 C150.3179408 96.77186278 157.03966299 103.5060843 163.76070738 110.24098635 C165.91196746 112.39633106 168.06380324 114.55109974 170.21571732 116.70579147 C173.60483231 120.09982697 176.99126942 123.49651332 180.37570381 126.89521599 C181.61359356 128.13759922 182.8523013 129.37916808 184.09191322 130.61983299 C185.79256789 132.32225554 187.4901038 134.02773117 189.18692017 135.73397827 C189.67010543 136.21629705 190.15329068 136.69861583 190.65111792 137.19555032 C193.32482573 139.89135806 195.8644861 142.66464431 198.34802818 145.53721046 C201.80592988 149.52217556 205.44977889 153.27193553 209.18994141 156.9909668 C209.88518732 157.68636157 210.58043324 158.38175634 211.29674721 159.09822369 C213.60562033 161.40640744 215.91803781 163.71100605 218.23046875 166.015625 C219.89522205 167.67845733 221.55974649 169.34151881 223.22406006 171.00479126 C226.79823028 174.57580882 230.37394623 178.14526874 233.9508667 181.71353149 C239.13048237 186.88073851 244.30700959 192.05103122 249.48256898 197.22230041 C257.89221948 205.62489702 266.30373605 214.02562271 274.71679688 222.42480469 C275.2194067 222.9265867 275.72201653 223.42836872 276.23985696 223.94535625 C279.80699009 227.50658963 283.37419036 231.06775577 286.94140625 234.62890625 C291.01632237 238.6968937 295.09120809 242.7649116 299.16601562 246.83300781 C299.66800799 247.33417205 300.17000035 247.83533628 300.6872046 248.35168731 C309.07054795 256.7213237 317.4519116 265.09293987 325.83187675 273.4659586 C331.45000286 279.07921978 337.07066651 284.68992726 342.69316101 290.29881287 C346.19350346 293.7916812 349.69175963 297.28663334 353.18946075 300.78214645 C354.80787141 302.3986896 356.42714405 304.01437032 358.04735565 305.62910843 C360.26486382 307.83936262 362.47922441 310.05272505 364.69287109 312.2668457 C365.32916758 312.89954722 365.96546406 313.53224874 366.62104225 314.18412304 C369.671652 317.24169959 372.60663982 320.35122288 375.4316864 323.6191864 C378.90526384 327.63623763 382.58105569 331.40296421 386.34545898 335.14648438 C387.40037788 336.20162231 387.40037788 336.20162231 388.47660828 337.27807617 C390.77370671 339.5744847 393.07431363 341.86734285 395.375 344.16015625 C396.97947213 345.76276092 398.58372185 347.36558829 400.1877594 348.96862793 C404.38913368 353.16620285 408.59350349 357.36076466 412.79852295 361.5546875 C417.09732733 365.84322201 421.39326604 370.13462505 425.68945312 374.42578125 C434.10398253 382.8296189 442.52168211 391.23027339 450.94140625 399.62890625 C450.9412439 398.82228707 450.94108155 398.0156679 450.94091427 397.18460572 C450.932052 349.37760752 450.95437558 301.57071057 451.01719654 253.76375002 C451.02471259 248.02348988 451.03196807 242.28322943 451.0390625 236.54296875 C451.04047925 235.4001864 451.041896 234.25740404 451.04335569 233.07999192 C451.06567408 214.57630024 451.06688489 196.07266433 451.06029488 177.56896295 C451.05400275 158.58239541 451.0703943 139.59594517 451.10784233 120.60941303 C451.13023487 108.89369491 451.13493498 97.178244 451.11700289 85.46251707 C451.10640104 77.42855314 451.11783323 69.39480876 451.14656778 61.36088999 C451.16249644 56.7256659 451.16873332 52.09096414 451.14879799 47.45574379 C451.13074714 43.20875895 451.14047678 38.96276086 451.17194508 34.71586262 C451.17846557 33.18272924 451.17494685 31.64951187 451.16015233 30.11643602 C451.07927877 21.06349672 451.73150156 13.71230226 457.94140625 6.62890625 C463.25156963 2.40786538 467.84180621 0.51160075 474.66371155 0.4750061 C475.85660797 0.46640564 477.04950439 0.45780518 478.27854919 0.44894409 C480.24453819 0.44255417 480.24453819 0.44255417 482.25024414 0.43603516 C483.64331262 0.42813205 485.03637906 0.41986297 486.42944336 0.41125488 C491.0076299 0.38504952 495.58582549 0.36972449 500.1640625 0.35546875 C501.7422683 0.35010766 503.32047404 0.34473014 504.89867973 0.3393364 C511.46722274 0.31770607 518.03576331 0.29897233 524.60433292 0.287714 C534.00414557 0.27149533 543.4035435 0.23837036 552.80319983 0.18131316 C559.41907308 0.1425305 566.03483582 0.12307126 572.65081972 0.11779344 C576.59832999 0.11415011 580.5453978 0.10223917 584.4927845 0.0696907 C588.21199401 0.03946429 591.93049679 0.03334929 595.64980316 0.04507446 C597.65179086 0.04539803 599.65373589 0.02102746 601.65556335 -0.00430298 C609.49926941 0.04950358 615.38285093 1.16189602 621.94140625 5.62890625 C624.1953125 7.9453125 624.1953125 7.9453125 625.50390625 10.19140625 C625.95894531 10.93519531 626.41398437 11.67898438 626.8828125 12.4453125 C628.71062809 16.21560371 629.06664397 19.53433519 629.06905675 23.70109582 C629.07207272 24.73292849 629.07508869 25.76476116 629.07819605 26.82786149 C629.07642658 27.96217364 629.07465711 29.0964858 629.07283401 30.26517105 C629.07591297 32.07927974 629.07591297 32.07927974 629.07905412 33.93003708 C629.08375194 37.30334036 629.08394671 40.67659059 629.08227653 44.04989323 C629.08154665 47.7136673 629.08656549 51.37743416 629.09085155 55.04120517 C629.09843992 62.31515531 629.10062503 69.58909812 629.1011806 76.8630518 C629.10209341 85.57270815 629.10875845 94.28235769 629.11552742 102.99201111 C629.13159789 124.04402773 629.13749174 145.09604362 629.14227617 166.14806527 C629.14461091 176.10357208 629.14821341 186.05907831 629.15197155 196.01458466 C629.16480752 230.08179096 629.17552704 264.14899693 629.17897415 298.2162056 C629.17919579 300.35528546 629.17941757 302.49436532 629.1796395 304.63344519 C629.17986014 306.77773987 629.18008063 308.92203456 629.18030095 311.06632924 C629.18074351 315.36827548 629.18119062 319.67022173 629.18164062 323.97216797 C629.18175002 325.03880288 629.18185941 326.10543778 629.18197211 327.20439496 C629.18560383 361.80054793 629.20152799 396.39667996 629.22483099 430.9928249 C629.24941353 467.55532332 629.26314624 504.11780976 629.26434207 540.68031669 C629.26451353 544.69204696 629.26472896 548.70377723 629.2649765 552.71550751 C629.26503227 553.70333472 629.26508804 554.69116192 629.2651455 555.70892329 C629.26629727 571.62215694 629.27732995 587.53536914 629.29186356 603.44859554 C629.30621258 619.43585424 629.30947456 635.42308537 629.30142358 651.41034874 C629.2969599 660.91351665 629.30085739 670.41659572 629.31666209 679.919752 C629.32638913 686.26436467 629.32525567 692.60891489 629.31522586 698.95352695 C629.30981736 702.57069831 629.30917638 706.18769868 629.32173458 709.80485609 C629.33514442 713.69974494 629.32539784 717.59437911 629.31334305 721.48927689 C629.32093824 722.61422438 629.32853343 723.73917187 629.33635879 724.89820868 C629.28843597 732.0327443 628.59545228 737.83261255 624.3984375 743.8359375 C623.85574219 744.36574219 623.31304688 744.89554688 622.75390625 745.44140625 C621.95919922 746.25544922 621.95919922 746.25544922 621.1484375 747.0859375 C614.70307867 751.59198483 608.2738582 752.07800767 600.66796875 752.02734375 C599.70418304 752.03021393 598.74039734 752.03308411 597.74740601 752.03604126 C595.71864226 752.03807292 593.68985853 752.03260628 591.66113281 752.02001953 C588.58222877 752.00398863 585.50464432 752.01988108 582.42578125 752.0390625 C580.44400756 752.03707922 578.46223468 752.03323381 576.48046875 752.02734375 C575.57285797 752.03341644 574.66524719 752.03948914 573.73013306 752.04574585 C560.79767323 751.9058767 550.33031957 747.10964868 541.08984375 738.1328125 C539.48822242 736.49586129 537.89711566 734.8485598 536.31640625 733.19140625 C534.72252313 731.54447994 533.12619738 729.89991381 531.52734375 728.2578125 C530.83688965 727.5366626 530.14643555 726.8155127 529.43505859 726.07250977 C527.38646118 724.06502871 525.30650382 722.19013655 523.13720703 720.31811523 C518.9786799 716.71081334 515.08936277 712.88831744 511.22265625 708.97265625 C510.52047974 708.26669312 509.81830322 707.56072998 509.09484863 706.83337402 C506.12756859 703.8499325 503.16635262 700.86049915 500.20458984 697.87158203 C498.0252216 695.67400046 495.84275678 693.47952687 493.66015625 691.28515625 C493.00470825 690.62140991 492.34926025 689.95766357 491.6739502 689.27380371 C488.52612431 686.10958394 485.33494805 683.05882666 481.95507812 680.14257812 C477.77399067 676.53324163 473.88426889 672.68180991 470.00390625 668.75390625 C468.91734741 667.66166748 468.91734741 667.66166748 467.80883789 666.54736328 C464.74598201 663.46833674 461.68918314 660.38332302 458.63183594 657.29882812 C456.38296508 655.03175167 454.13100387 652.76777659 451.87890625 650.50390625 C451.20158447 649.81828613 450.5242627 649.13266602 449.82641602 648.42626953 C446.62315686 645.20683828 443.38050919 642.09632013 439.94140625 639.12890625 C435.76432875 635.52473448 431.87976049 631.67724627 428.00390625 627.75390625 C426.91734741 626.66166748 426.91734741 626.66166748 425.80883789 625.54736328 C422.74598201 622.46833674 419.68918314 619.38332302 416.63183594 616.29882812 C414.38296508 614.03175167 412.13100387 611.76777659 409.87890625 609.50390625 C409.20158447 608.81828613 408.5242627 608.13266602 407.82641602 607.42626953 C404.62315686 604.20683828 401.38050919 601.09632013 397.94140625 598.12890625 C393.76432875 594.52473448 389.87976049 590.67724627 386.00390625 586.75390625 C384.91734741 585.66166748 384.91734741 585.66166748 383.80883789 584.54736328 C380.74598201 581.46833674 377.68918314 578.38332302 374.63183594 575.29882812 C372.38296508 573.03175167 370.13100387 570.76777659 367.87890625 568.50390625 C367.20158447 567.81828613 366.5242627 567.13266602 365.82641602 566.42626953 C362.62315686 563.20683828 359.38050919 560.09632013 355.94140625 557.12890625 C351.76432875 553.52473448 347.87976049 549.67724627 344.00390625 545.75390625 C342.91734741 544.66166748 342.91734741 544.66166748 341.80883789 543.54736328 C338.74598201 540.46833674 335.68918314 537.38332302 332.63183594 534.29882812 C330.38296508 532.03175167 328.13100387 529.76777659 325.87890625 527.50390625 C325.20158447 526.81828613 324.5242627 526.13266602 323.82641602 525.42626953 C320.62315686 522.20683828 317.38050919 519.09632013 313.94140625 516.12890625 C309.76432875 512.52473448 305.87976049 508.67724627 302.00390625 504.75390625 C300.91734741 503.66166748 300.91734741 503.66166748 299.80883789 502.54736328 C296.74598201 499.46833674 293.68918314 496.38332302 290.63183594 493.29882812 C288.38296508 491.03175167 286.13100387 488.76777659 283.87890625 486.50390625 C283.20158447 485.81828613 282.5242627 485.13266602 281.82641602 484.42626953 C277.99035931 480.57084596 274.03884714 476.93676291 269.921875 473.38452148 C266.54521136 470.39122905 263.39213109 467.18225842 260.22265625 463.97265625 C259.16939148 462.91371155 259.16939148 462.91371155 258.09484863 461.83337402 C255.12756859 458.8499325 252.16635262 455.86049915 249.20458984 452.87158203 C247.0252216 450.67400046 244.84275678 448.47952687 242.66015625 446.28515625 C242.00470825 445.62140991 241.34926025 444.95766357 240.6739502 444.27380371 C237.52612431 441.10958394 234.33494805 438.05882666 230.95507812 435.14257812 C226.77399067 431.53324163 222.88426889 427.68180991 219.00390625 423.75390625 C217.91734741 422.66166748 217.91734741 422.66166748 216.80883789 421.54736328 C213.74598201 418.46833674 210.68918314 415.38332302 207.63183594 412.29882812 C205.38296508 410.03175167 203.13100387 407.76777659 200.87890625 405.50390625 C200.20158447 404.81828613 199.5242627 404.13266602 198.82641602 403.42626953 C195.62748278 400.21118603 192.3897167 397.10471447 188.95458984 394.14208984 C184.69783054 390.46921829 180.74335649 386.54044683 176.79296875 382.54296875 C176.05436615 381.80057953 175.31576355 381.05819031 174.55477905 380.29330444 C172.22285347 377.94927507 169.89423368 375.60200504 167.56640625 373.25390625 C164.47811003 370.13907936 161.38655573 367.02753997 158.29296875 363.91796875 C157.58467926 363.20138092 156.87638977 362.48479309 156.14663696 361.74649048 C155.49190399 361.08845428 154.83717102 360.43041809 154.16259766 359.75244141 C153.58716217 359.1717691 153.01172668 358.5910968 152.41885376 357.99282837 C150.96731829 356.52598654 150.96731829 356.52598654 148.94140625 355.62890625 C148.94118888 356.42706155 148.94097151 357.22521684 148.94074756 358.04755867 C148.92723149 405.35352875 148.88774928 452.65941608 148.81455063 499.96533339 C148.80578389 505.64550844 148.79723408 511.3256838 148.78881836 517.00585938 C148.7871393 518.13667927 148.78546023 519.26749916 148.78373029 520.43258633 C148.75706105 538.74227148 148.74796526 557.05192534 148.74536482 575.36162792 C148.74230529 594.14930617 148.72035858 612.93689391 148.68088168 631.72453129 C148.65711779 643.31737864 148.64808301 654.91004531 148.65789314 666.50291367 C148.66320917 674.45275956 148.65017799 682.40244355 148.62274335 690.35224335 C148.60745625 694.93880295 148.60023565 699.5250002 148.61480904 704.11157036 C148.62798318 708.31404737 148.618022 712.51582293 148.58996852 716.71822108 C148.5838702 718.23520262 148.58612741 719.75224671 148.59777699 721.26919578 C148.65957797 730.0027556 148.09712112 737.25950647 142.94140625 744.62890625 C140.58984375 746.8828125 140.58984375 746.8828125 138.31640625 748.19140625 C137.56101562 748.64644531 136.805625 749.10148437 136.02734375 749.5703125 C132.25477402 751.48485631 129.30478634 751.75918333 125.12971497 751.77607727 C123.91709991 751.78323257 122.70448486 751.79038788 121.4551239 751.79776001 C120.10916163 751.80060025 118.76319909 751.80331198 117.41723633 751.8059082 C116.00121901 751.81217405 114.58520333 751.81882096 113.16918945 751.82582092 C108.51645043 751.84685232 103.86371111 751.85722361 99.2109375 751.8671875 C97.60792206 751.87123564 96.0049068 751.87535258 94.40189171 751.87953758 C86.86911995 751.89858858 79.33635797 751.91281884 71.80356675 751.92114955 C63.11567392 751.93091688 54.42803621 751.95722346 45.74023324 751.99765044 C39.02078056 752.02784207 32.30140088 752.04262138 25.5818817 752.04593056 C21.57079255 752.04827792 17.55997597 752.05719688 13.54895973 752.08239174 C9.77237298 752.10573054 5.99623713 752.10988267 2.21959686 752.09963036 C0.83775263 752.09913626 -0.54411423 752.10541944 -1.92588997 752.1191864 C-10.7245391 752.20190439 -17.1897783 751.83037441 -24.08203125 745.8828125 C-24.52804687 745.32464844 -24.9740625 744.76648437 -25.43359375 744.19140625 C-25.89507813 743.63582031 -26.3565625 743.08023438 -26.83203125 742.5078125 C-29.39283214 738.585057 -30.30856806 735.07505693 -30.31044275 730.41969413 C-30.31570601 729.38274733 -30.32096927 728.34580053 -30.32639202 727.2774311 C-30.32199554 726.14253727 -30.31759906 725.00764343 -30.31306934 723.83835888 C-30.31627582 722.6244225 -30.3194823 721.41048612 -30.32278594 720.15976378 C-30.32967564 716.77835711 -30.32757087 713.39716928 -30.32173022 710.01577466 C-30.3175688 706.34153699 -30.32495682 702.66731984 -30.33088273 698.99308711 C-30.33965942 692.54950715 -30.34095164 686.10595896 -30.33737946 679.6623745 C-30.33208147 670.08053678 -30.33815865 660.49872993 -30.34646239 650.91689557 C-30.36172245 632.80946776 -30.36340538 614.70205391 -30.36093936 596.59462103 C-30.35910834 582.61358873 -30.3608623 568.63256103 -30.3651638 554.65152931 C-30.3657662 552.64451237 -30.3663674 550.63749542 -30.36696741 548.63047848 C-30.36787464 545.60626943 -30.3687833 542.58206039 -30.36969976 539.55785135 C-30.37813243 511.43095824 -30.38246283 483.30406686 -30.37829304 455.17717266 C-30.37813666 454.11629368 -30.37798029 453.0554147 -30.37781917 451.96238788 C-30.37701336 446.58515987 -30.37616759 441.20793187 -30.37530587 435.83070388 C-30.37513478 434.76272741 -30.37496369 433.69475095 -30.37478742 432.59441157 C-30.37444077 430.4347022 -30.37409224 428.27499284 -30.37374183 426.11528348 C-30.36838426 392.50791624 -30.3763148 358.90057523 -30.39477539 325.29321289 C-30.41548135 287.55376897 -30.42622076 249.81434131 -30.4221999 212.07489139 C-30.42180455 208.05250442 -30.421443 204.03011745 -30.42110252 200.00773048 C-30.42101179 199.01728348 -30.42092106 198.02683647 -30.42082758 197.00637591 C-30.41966052 182.04004281 -30.42631818 167.07372609 -30.43691444 152.10739708 C-30.44895034 135.09012317 -30.45054405 118.07288541 -30.43812428 101.05561098 C-30.43148232 91.52800073 -30.43315742 82.00047684 -30.44671279 72.47287346 C-30.45493455 66.11199965 -30.45228944 59.75119078 -30.44073752 53.39032228 C-30.43445844 49.76388445 -30.43293837 46.13761558 -30.44460086 42.51118728 C-30.45704333 38.60636489 -30.4463391 34.70180206 -30.43332386 30.79697704 C-30.44063321 29.66910671 -30.44794255 28.54123637 -30.45547339 27.37918815 C-30.40344408 19.88815837 -29.30414702 14.49125788 -25.49609375 7.94140625 C-18.03483987 0.86278078 -9.91546476 -0.11326183 0 0 Z " fill="#E40032" transform="translate(1242.05859375,959.37109375)"/>
<path d="M0 0 C0.77380538 -0.00205263 1.54761076 -0.00410527 2.34486479 -0.0062201 C4.95315542 -0.0119012 7.56139343 -0.01043148 10.16968918 -0.00901413 C12.05247424 -0.01159713 13.93525876 -0.0146101 15.81804252 -0.01801753 C21.00408218 -0.02609842 26.19010801 -0.02787771 31.37615323 -0.028615 C36.96456732 -0.03046365 42.5529742 -0.03801001 48.14138412 -0.04475021 C60.36650016 -0.05834159 72.59161293 -0.06435945 84.81673527 -0.06876087 C92.44722247 -0.07152182 100.07770839 -0.07575889 107.70819473 -0.08026505 C128.82654489 -0.09245855 149.9448942 -0.10279323 171.06324768 -0.10614014 C172.42895007 -0.10636177 173.79465245 -0.10658355 175.16035484 -0.10680549 C176.52936005 -0.10702613 177.89836525 -0.10724661 179.26737046 -0.10746694 C182.01384242 -0.10790949 184.76031439 -0.1083566 187.50678635 -0.10880661 C188.18775184 -0.108916 188.86871733 -0.10902539 189.57031814 -0.1091381 C211.65300975 -0.11276911 233.73566854 -0.12869094 255.81834758 -0.15199697 C279.16387686 -0.17659079 302.50938484 -0.19030603 325.85492969 -0.19150805 C338.58160494 -0.19242554 351.30823723 -0.19819645 364.03490067 -0.21632767 C374.87083397 -0.23171062 385.70671103 -0.23685977 396.54265317 -0.22858956 C402.0726921 -0.22467673 407.60261768 -0.22564361 413.13264275 -0.23964691 C418.19449168 -0.25234764 423.25614164 -0.25122199 428.31799015 -0.2390562 C430.14976582 -0.23709256 431.98155539 -0.24020827 433.81331149 -0.24890056 C436.30333894 -0.25996902 438.79266118 -0.25252162 441.28266907 -0.24050903 C442.34920862 -0.25190182 442.34920862 -0.25190182 443.43729442 -0.26352477 C450.06866998 -0.19446922 455.20486721 1.65863476 460.64301682 5.31892776 C467.51416503 12.34623844 467.9769007 19.21498047 467.91059494 28.75447464 C467.92110886 30.62426735 467.92110886 30.62426735 467.93183517 32.53183365 C467.94636694 35.93089478 467.94304194 39.3289747 467.93031883 42.72797966 C467.9201408 46.29700468 467.92959777 49.86598984 467.93586349 53.43501663 C467.94312602 59.42683245 467.93358908 65.4184506 467.91450119 71.41023636 C467.89273493 78.32228231 467.8997873 85.23385619 467.92180681 92.14589071 C467.94000084 98.09691179 467.94249969 104.04779135 467.93205214 109.99883127 C467.92583907 113.54591126 467.92492076 117.09276988 467.93819809 120.63983536 C467.95197498 124.59620161 467.93284156 128.55204568 467.91059494 132.50838089 C467.91869186 133.67329559 467.92678879 134.8382103 467.93513107 136.03842545 C467.85522948 143.72349623 466.81245465 149.16885775 461.64692307 155.15486526 C461.088759 155.60088089 460.53059494 156.04689651 459.95551682 156.50642776 C459.39993088 156.96791214 458.84434494 157.42939651 458.27192307 157.90486526 C454.3308592 160.47761798 450.81600127 161.38146824 446.1394186 161.37752342 C445.09489487 161.38150552 444.05037115 161.38548762 442.97419518 161.38959038 C441.83314775 161.3837647 440.69210031 161.37793902 439.51647568 161.3719368 C438.2993885 161.37364565 437.08230133 161.3753545 435.82833272 161.37711513 C432.45327541 161.37983992 429.07845002 161.37358905 425.70342076 161.36355901 C422.06271122 161.35492266 418.42200886 161.3578448 414.78129196 161.35936356 C408.47456986 161.36041229 402.16788914 161.35413689 395.86117744 161.34288788 C386.74273538 161.32663429 377.62431332 161.32142502 368.50585834 161.3189119 C353.71180412 161.31453457 338.91777195 161.30122445 324.12372971 161.28230667 C309.75263708 161.26394884 295.38155044 161.24979186 281.01044846 161.24129105 C280.12462439 161.2407656 279.23880032 161.24024015 278.32613309 161.23969878 C273.88221714 161.23708871 269.43830115 161.23456129 264.99438512 161.23207498 C228.12724277 161.21134131 191.2601412 161.17447092 154.39301682 161.13142776 C154.39301682 203.70142776 154.39301682 246.27142776 154.39301682 290.13142776 C171.98614182 290.08502151 189.57926682 290.03861526 207.70551682 289.99080276 C218.8344254 289.97037072 229.96332044 289.95094997 241.09223557 289.93611526 C246.93777638 289.92828394 252.78331677 289.92020206 258.62885666 289.9117012 C259.72780028 289.91011871 259.72780028 289.91011871 260.84894478 289.90850425 C272.67204436 289.89111362 284.49506601 289.85958203 296.31811941 289.82281658 C308.45448636 289.78539199 320.59081255 289.76318871 332.72723484 289.75507379 C340.21427525 289.74958914 347.70109547 289.73227523 355.18806809 289.6997619 C360.93201317 289.67609068 366.6758176 289.67361176 372.41980171 289.67899704 C374.77401395 289.67789669 377.12823453 289.66994135 379.48239708 289.65460587 C382.69851493 289.63468324 385.9136933 289.63949762 389.12983322 289.6504097 C390.05981282 289.63875833 390.98979242 289.62710697 391.94795322 289.61510253 C399.4180773 289.6835362 404.55891001 291.67520187 410.20551682 296.56892776 C414.82563568 301.98106701 416.50698992 306.25600385 416.54018784 313.2973671 C416.55092079 314.86375931 416.55092079 314.86375931 416.56187057 316.46179581 C416.56455948 317.60211761 416.56724838 318.74243942 416.57001877 319.91731644 C416.57658997 321.12264023 416.58316116 322.32796402 416.58993149 323.56981277 C416.60965952 327.5630099 416.62133055 331.55616687 416.63129807 335.54939651 C416.63534767 336.92734484 416.63946465 338.30529297 416.64364815 339.68324089 C416.66269064 346.15935146 416.67692264 352.63545072 416.68526012 359.11158389 C416.69502401 366.57128468 416.72132499 374.03068808 416.76176101 381.49028414 C416.79198916 387.26625632 416.80673538 393.04214356 416.81004113 398.81819326 C416.81238433 402.26313927 416.82124838 405.70776724 416.8465023 409.15262794 C416.87426189 413.00136928 416.86993143 416.84972401 416.86298752 420.69856644 C416.88220261 422.39386742 416.88220261 422.39386742 416.90180588 424.1234169 C416.85029401 431.97473721 415.57102247 438.34688425 410.42817307 444.47127151 C409.7771965 444.99849808 409.12621994 445.52572464 408.45551682 446.06892776 C407.80711838 446.6142012 407.15871994 447.15947464 406.49067307 447.72127151 C400.94230522 451.45117988 395.97283402 451.41216555 389.49059677 451.3719368 C388.48585432 451.37364565 387.48111187 451.3753545 386.44592267 451.37711513 C383.07559464 451.3804122 379.70546521 451.36940261 376.33515549 451.35847855 C373.92065562 451.35791448 371.5061554 451.3582309 369.09165573 451.35936356 C363.89153939 451.35981915 358.69146806 451.35414235 353.49136543 451.34288788 C345.97291554 451.32662646 338.45448992 451.32142422 330.93602435 451.3189119 C318.73751133 451.3145358 306.53902507 451.30122901 294.34052658 451.28230667 C282.49156959 451.26394566 270.6426199 451.24981317 258.79365158 451.24129105 C257.6867292 451.24048705 257.6867292 451.24048705 256.55744475 451.23966682 C250.13824967 451.23504106 243.71905437 451.23073549 237.29985905 451.22646141 C209.66421978 451.20764569 182.02865146 451.16780374 154.39301682 451.13142776 C154.39301682 497.00142776 154.39301682 542.87142776 154.39301682 590.13142776 C186.73817307 590.07922073 186.73817307 590.07922073 219.73676682 590.02595901 C233.3721842 590.01063609 247.00759631 589.99605235 260.64301682 589.98494339 C267.80447536 589.97906978 274.9659337 589.97300834 282.12739182 589.96663284 C283.47374757 589.96544597 283.47374757 589.96544597 284.84730244 589.96423513 C299.33735954 589.95118767 313.82738092 589.92753646 328.31741685 589.89996938 C343.18841644 589.8719135 358.05939733 589.85525112 372.93042231 589.84916228 C382.10643131 589.84504622 391.2823394 589.83204652 400.45831734 589.80767836 C406.75087049 589.79181893 413.04337148 589.78702788 419.33594316 589.79092363 C422.96628115 589.79284486 426.59644279 589.78990236 430.22674942 589.77381134 C434.16517153 589.75648237 438.10336447 589.76246928 442.04182053 589.77066422 C443.18580228 589.76192569 444.32978404 589.75318717 445.50843191 589.74418384 C452.85142257 589.78552497 459.00040912 590.30425468 464.85395432 595.18220901 C465.80141525 596.3017598 465.80141525 596.3017598 466.76801682 597.44392776 C467.41512619 598.18256058 468.06223557 598.92119339 468.72895432 599.68220901 C473.05623301 606.05123188 472.68952747 612.63405862 472.68354416 620.05257034 C472.69026138 621.24843262 472.69697861 622.44429489 472.70389938 623.67639542 C472.71961001 626.94517505 472.72625255 630.21380193 472.72753096 633.48261476 C472.72895622 635.52869193 472.73323292 637.57474276 472.73852539 639.62081337 C472.75700896 646.76995779 472.76519819 653.91902782 472.76362228 661.06819534 C472.76242165 667.71431287 472.78351263 674.36010524 472.81510961 681.00614053 C472.84133094 686.72696473 472.85198712 692.44768311 472.85071146 698.16856688 C472.8502035 701.57881252 472.85579388 704.98876904 472.87706757 708.39895439 C472.89671377 712.20694273 472.89089361 716.01409919 472.87885666 719.82210159 C472.89009567 720.93980942 472.90133469 722.05751724 472.91291428 723.209095 C472.85033416 731.01992691 471.5434798 737.37968357 466.42817307 743.47127151 C465.7771965 743.99849808 465.12621994 744.52572464 464.45551682 745.06892776 C463.80711838 745.6142012 463.15871994 746.15947464 462.49067307 746.72127151 C457.6480229 749.97675887 453.25912523 750.42088572 447.53804684 750.38869667 C446.74958062 750.39220275 445.96111441 750.39570882 445.14875528 750.39932114 C442.49656004 750.40865344 439.84458349 750.40370711 437.192379 750.3988533 C435.27573127 750.40258864 433.35908506 750.40718969 431.44244128 750.41258395 C426.16743372 750.42484376 420.89248943 750.42454997 415.61747086 750.4221952 C409.93158938 750.42178778 404.2457284 750.43281894 398.55985641 750.44231033 C387.41713669 750.45893757 376.27443812 750.46442066 365.13170704 750.46553509 C356.07630349 750.46648473 347.02090694 750.47059083 337.9655056 750.47693634 C316.48081761 750.49168566 294.99613651 750.50398557 273.51144314 750.50293922 C272.48064585 750.50289249 272.48064585 750.50289249 271.42902437 750.50284481 C267.94596679 750.50267859 264.46290921 750.50248051 260.97985163 750.50227539 C260.28809596 750.5022355 259.59634029 750.50219561 258.88362233 750.50215451 C257.48472352 750.50207364 256.08582471 750.50199004 254.6869259 750.50190373 C232.92169317 750.50067818 211.15652274 750.51569154 189.39130783 750.54304886 C164.94176214 750.57376748 140.49226453 750.59095615 116.04269725 750.58912241 C103.09581441 750.58845783 90.14900185 750.59398004 77.20213509 750.61547852 C66.17956182 750.63366406 55.15709068 750.63805924 44.13450893 750.62445967 C38.50924641 750.61791682 32.88417996 750.61786039 27.25893593 750.63516617 C22.11010306 750.65084357 16.96162259 750.6480878 11.8127986 750.6305979 C9.94942484 750.62751625 8.08602512 750.63120406 6.22268196 750.64231806 C3.68986453 750.65642547 1.15828558 750.64586425 -1.37448978 750.6292057 C-2.09806507 750.63914206 -2.82164035 750.64907842 -3.56714216 750.65931588 C-9.79064789 750.57276689 -14.9088115 748.45977283 -19.63042068 744.38533401 C-20.07643631 743.82716995 -20.52245193 743.26900589 -20.98198318 742.69392776 C-21.44346756 742.13834183 -21.90495193 741.58275589 -22.38042068 741.01033401 C-24.94169462 737.08685388 -25.85691095 733.57415103 -25.86228418 728.91810495 C-25.86831612 727.88023718 -25.87434806 726.84236942 -25.88056278 725.77305111 C-25.87702384 724.63712463 -25.8734849 723.50119815 -25.86983871 722.33084965 C-25.87394398 721.11582409 -25.87804925 719.90079852 -25.88227892 718.648954 C-25.89166483 715.26448442 -25.89206681 711.88022665 -25.88872374 708.49575969 C-25.88726256 704.81816111 -25.89730502 701.14059117 -25.90587378 697.46300477 C-25.92104222 690.16365022 -25.92542032 682.86432493 -25.92653189 675.56495627 C-25.92835832 666.82398694 -25.94169086 658.08304472 -25.95522553 649.34208705 C-25.98735817 628.21490511 -25.99915328 607.08772604 -26.00872303 585.96052406 C-26.0133934 575.96824302 -26.0205985 565.97596428 -26.02811379 555.98368504 C-26.05378517 521.7865151 -26.07522411 487.58934645 -26.08211899 453.39216709 C-26.08256225 451.2451432 -26.08300582 449.09811931 -26.08344969 446.95109541 C-26.08389097 444.79885545 -26.08433194 442.64661549 -26.08477259 440.49437553 C-26.0856577 436.17653421 -26.08655193 431.8586929 -26.08745193 427.54085159 C-26.08767072 426.47027656 -26.0878895 425.39970153 -26.08811491 424.29668483 C-26.09537775 389.57566022 -26.12722403 354.85471908 -26.17383266 320.13372643 C-26.22300751 283.43402063 -26.25046363 246.73436256 -26.25285482 210.03462285 C-26.25319774 206.00714472 -26.2536286 201.97966661 -26.25412369 197.95218849 C-26.25423523 196.96049318 -26.25434676 195.96879787 -26.25446168 194.94705118 C-26.2567644 178.97751906 -26.27882265 163.00807251 -26.3078978 147.0385693 C-26.33660843 130.99200428 -26.34311273 114.94554911 -26.32701784 98.89896546 C-26.3180963 89.36278611 -26.32586175 79.82696104 -26.35749486 70.29082814 C-26.37696956 63.9216977 -26.37466256 57.55281594 -26.3546224 51.18368787 C-26.34381971 47.55402289 -26.34247509 43.92503901 -26.36763984 40.29542998 C-26.3945343 36.38369932 -26.37493065 32.47297811 -26.35085678 28.56121159 C-26.36604717 27.43699093 -26.38123755 26.31277028 -26.39688826 25.15448233 C-26.29517543 17.52115421 -24.50721723 12.07718723 -19.60698318 6.13142776 C-13.31866745 1.02662016 -7.99001486 -0.01962559 0 0 Z " fill="#1D2858" transform="translate(761.6069831848145,-0.13142776489257813)"/>
<path d="M0 0 C1.16657498 -0.00352835 1.16657498 -0.00352835 2.35671714 -0.00712797 C4.98433258 -0.01382876 7.6118987 -0.01335942 10.23952198 -0.01294994 C12.13381854 -0.01624789 14.0281144 -0.01997331 15.92240936 -0.02409142 C21.14491141 -0.03412733 26.36740196 -0.03783077 31.5899123 -0.04048073 C37.21583698 -0.04437906 42.84175253 -0.05395769 48.46767139 -0.0626936 C62.06242334 -0.08247101 75.65717605 -0.09252568 89.25193879 -0.10142139 C95.64997943 -0.10580206 102.04801924 -0.11116942 108.44605923 -0.11641026 C129.70762672 -0.13342355 150.96919326 -0.14794349 172.2307663 -0.155159 C173.60600197 -0.15563375 174.98123764 -0.15610964 176.35647332 -0.15658666 C177.03847142 -0.15682303 177.72046953 -0.15705941 178.42313424 -0.15730295 C181.87851646 -0.15850416 185.33389868 -0.1597196 188.78928089 -0.16094494 C189.4750138 -0.16118509 190.16074671 -0.16142524 190.8672594 -0.16167267 C213.1021499 -0.16956622 235.33698706 -0.19299896 257.57185426 -0.22550088 C281.0756929 -0.25979505 304.57948881 -0.2795086 328.0833562 -0.28280324 C340.89725248 -0.28497063 353.71107036 -0.2937528 366.52494335 -0.31926441 C377.4359367 -0.34093701 388.34683263 -0.34903877 399.25784507 -0.33929763 C404.82639088 -0.33474301 410.39473555 -0.33670668 415.96325397 -0.35605907 C421.06034958 -0.37362041 426.15709624 -0.37275023 431.25419519 -0.35716178 C433.09878899 -0.35477501 434.94340651 -0.35916437 436.78796395 -0.37099043 C439.29547343 -0.38607192 441.80174052 -0.37646348 444.30921936 -0.36076355 C445.02534461 -0.37098576 445.74146986 -0.38120796 446.47929588 -0.39173993 C452.71951295 -0.30646819 457.98620387 1.76625529 462.49265003 6.06390858 C462.93866566 6.7058617 463.38468128 7.34781483 463.84421253 8.00922108 C464.53643909 8.96441639 464.53643909 8.96441639 465.24265003 9.93890858 C468.92347367 16.52687955 468.75992996 22.8076119 468.74387074 30.16302967 C468.75153713 31.97386288 468.75153713 31.97386288 468.75935841 33.82127857 C468.77085355 37.12102507 468.77333167 40.42051986 468.77079511 43.72026873 C468.76972244 46.4810247 468.77461639 49.24175772 468.77940053 52.00250876 C468.79048173 58.51941223 468.79094115 65.03625806 468.78488636 71.55316639 C468.77884903 78.261734 468.79115452 84.97009174 468.81245643 91.67862356 C468.83010812 97.45123449 468.83606812 103.22377883 468.83281869 108.99641573 C468.83101113 112.43842919 468.83358884 115.88029297 468.84753323 119.32228184 C468.8625149 123.16381185 468.85311027 127.00507741 468.84152699 130.84662342 C468.84917072 131.97727726 468.85681446 133.1079311 468.86468983 134.27284718 C468.81452347 141.81173743 467.7385748 147.23091797 463.90671253 153.82172108 C456.64622252 160.70987827 448.76639369 161.86170912 439.10529041 161.73549366 C437.89618177 161.73976578 436.68707313 161.74403791 435.44132483 161.74843949 C432.11129776 161.7552152 428.78276286 161.73973195 425.45291734 161.71454918 C421.85251591 161.69284817 418.25215613 161.70027138 414.65170765 161.70406055 C408.42246562 161.70667549 402.19348654 161.69105985 395.96431065 161.66287136 C386.95814342 161.62214298 377.95210264 161.60920463 368.94585331 161.6029314 C354.33198571 161.59200283 339.71825809 161.55876774 325.10446644 161.51141834 C310.91306717 161.46548548 296.72170619 161.43016921 282.53024769 161.40887928 C281.64578177 161.40753929 280.76131586 161.40619931 279.85004795 161.40481871 C272.93239024 161.39442089 266.01473171 161.38463652 259.09707284 161.3750459 C225.22099091 161.32792327 191.34525959 161.22732124 157.46921253 161.13422108 C157.46921253 203.70422108 157.46921253 246.27422108 157.46921253 290.13422108 C174.91796253 290.08781483 192.36671253 290.04140858 210.34421253 289.99359608 C221.38197531 289.97316396 232.41972442 289.95374321 243.45749378 289.93890858 C249.25518304 289.93107726 255.05287187 289.92299538 260.85056019 289.91449451 C261.5771914 289.91343952 262.30382261 289.91238452 263.05247295 289.91129756 C274.77859178 289.89390721 286.50463204 289.86237576 298.23070431 289.82560989 C310.26763013 289.78818455 322.30451485 289.76598186 334.34149647 289.7578671 C341.10132612 289.75287436 347.86099208 289.74088057 354.62076283 289.71130085 C360.98350831 289.68414842 367.3460024 289.6757759 373.70880032 289.68179035 C376.04366198 289.68069006 378.37853206 289.67273543 380.71334362 289.65739918 C383.90318957 289.63747463 387.09208845 289.6422916 390.28195667 289.65320301 C391.20415438 289.64155164 392.12635208 289.62990028 393.07649517 289.61789584 C399.9634536 289.68149682 405.19162793 291.36282715 410.49265003 295.84515858 C410.93866566 296.3942992 411.38468128 296.94343983 411.84421253 297.50922108 C412.30569691 298.05320545 412.76718128 298.59718983 413.24265003 299.15765858 C417.16966813 305.48591067 416.7714512 312.1194958 416.77560902 319.31488514 C416.78393253 320.53840183 416.79225605 321.76191853 416.80083179 323.02251148 C416.82076211 326.36783242 416.83156584 329.71290482 416.83665824 333.05826378 C416.84031107 335.15259146 416.84655595 337.24689554 416.85365963 339.34121418 C416.87813017 346.66008516 416.89120047 353.97888552 416.89474964 361.2977953 C416.89838135 368.09959609 416.92825621 374.90094468 416.97015423 381.70260739 C417.00495017 387.55847807 417.02029969 393.41419957 417.02099568 399.27017283 C417.02178545 402.76044806 417.03038402 406.2502623 417.05899334 409.74042988 C417.09023863 413.63912075 417.0810699 417.53717169 417.06857777 421.43597889 C417.0908292 423.14922604 417.0908292 423.14922604 417.11353016 424.89708424 C417.03617364 433.40370775 415.15005831 440.35651094 409.09421253 446.57172108 C402.28345978 450.62574057 397.27416876 451.56929649 389.44017506 451.49498463 C388.44597441 451.4975479 387.45177377 451.50011118 386.42744583 451.50275213 C383.10469456 451.50768332 379.78240028 451.49120768 376.45969105 451.47479725 C374.07445251 451.47395084 371.68921319 451.4744264 369.30397511 451.47612476 C363.50490936 451.47689625 357.70599267 451.46390191 351.90696097 451.44481178 C345.15705863 451.42333613 338.40717724 451.41887368 331.65724551 451.41544727 C319.62065947 451.40888752 307.58413454 451.38893929 295.54758167 451.36053944 C283.85780608 451.33298654 272.1680472 451.3117934 260.47824574 451.299016 C259.74988599 451.29821201 259.02152624 451.29740801 258.27109498 451.29657966 C251.93503903 451.28964077 245.5989826 451.28318253 239.2629261 451.27677155 C211.99829737 451.24856165 184.73383075 451.18879478 157.46921253 451.13422108 C157.46921253 497.00422108 157.46921253 542.87422108 157.46921253 590.13422108 C178.86507191 590.07621326 200.26093128 590.01820545 222.30515003 589.95843983 C235.8403083 589.93289949 249.37545178 589.908593 262.91061878 589.89008045 C270.02015713 589.88029132 277.12969492 589.87018898 284.23923206 589.85956287 C285.1302772 589.85824413 286.02132234 589.85692539 286.93936884 589.85556668 C301.31819778 589.83382953 315.69692657 589.79441567 330.07569616 589.7484571 C344.83596017 589.70167319 359.59617182 589.67392159 374.35650694 589.6637786 C383.46195773 589.65692345 392.56712557 589.63528465 401.67248924 589.59463874 C407.91928967 589.56817648 414.16594416 589.56022795 420.41279654 589.56671419 C424.01515338 589.56991171 427.61701635 589.5650656 431.21928501 589.5381937 C435.13084922 589.50922871 439.0417754 589.51931171 442.95343494 589.53294849 C444.08380912 589.51838429 445.2141833 589.50382008 446.37881124 589.48881453 C453.68878159 589.55760009 459.41841456 590.87363008 465.46921253 595.13422108 C470.17608941 600.16187004 472.58434139 604.32177453 472.61638355 611.30052662 C472.62353886 612.37010105 472.63069416 613.43967548 472.63806629 614.54166126 C472.6407552 615.71520161 472.6434441 616.88874195 472.64621449 618.09784412 C472.65278568 619.33388889 472.65935688 620.56993366 472.6661272 621.84343433 C472.68587849 625.94427195 472.6975295 630.04507043 472.70749378 634.14593983 C472.71154234 635.55950725 472.71565929 636.97307448 472.71984386 638.3866415 C472.73889348 645.02987549 472.75312365 651.6730984 472.76145583 658.31635445 C472.77122066 665.97473358 472.79752111 673.63282308 472.83795673 681.2911002 C472.86816454 687.21650453 472.88292921 693.14182606 472.88623685 699.06730586 C472.8885825 702.60333412 472.89747872 706.13905291 472.92269802 709.67499828 C472.95041251 713.62463377 472.94613331 717.57389159 472.93918324 721.52362537 C472.95199329 722.68704456 472.96480335 723.85046375 472.97800159 725.04913807 C472.92496363 733.32640715 471.57173364 738.55438903 466.03171253 744.94672108 C459.76232324 750.29863877 454.98201939 751.2860455 446.91466808 751.26285553 C446.14652702 751.26460857 445.37838595 751.2663616 444.58696789 751.26816776 C441.99792412 751.27284137 439.40893618 751.27035876 436.81989002 751.26793385 C434.95090489 751.26980114 433.08192016 751.27210152 431.21293604 751.27479917 C426.06496063 751.28093382 420.91700142 751.28078161 415.76902318 751.27960479 C410.22147224 751.2794012 404.67392656 751.28491563 399.12637806 751.28966236 C388.2522297 751.29797903 377.37808677 751.30071768 366.5039355 751.30127474 C357.66544211 751.3017495 348.82695051 751.30380225 339.98845768 751.30697536 C319.0176587 751.31435105 298.04686069 751.32049987 277.0760603 751.31997681 C276.40515799 751.31996123 275.73425568 751.31994565 275.04302299 751.3199296 C271.64255255 751.31984649 268.24208211 751.31974745 264.84161167 751.31964489 C264.16625839 751.31962495 263.49090512 751.319605 262.79508659 751.31958445 C261.42935597 751.31954401 260.06362535 751.31950222 258.69789472 751.31945906 C237.45645866 751.31884651 216.21503856 751.32634849 194.97360706 751.34003162 C171.1118626 751.35539633 147.25012855 751.36398491 123.38837779 751.3630684 C110.75331149 751.36273625 98.1182632 751.36549118 85.48320103 751.37624645 C74.72382212 751.3853462 63.96446938 751.38753108 53.2050883 751.38073703 C47.71533098 751.37746893 42.22562388 751.37742557 36.73587132 751.38609028 C31.70849462 751.39394355 26.68120805 751.39253579 21.65383358 751.38380615 C19.83682857 751.38226856 18.01981688 751.38409707 16.20281975 751.38966622 C-7.9763615 751.45885677 -7.9763615 751.45885677 -15.53078747 745.13422108 C-22.35618689 738.30882165 -23.86100028 730.79682326 -23.92959422 721.32517344 C-23.92257072 720.21069958 -23.91554722 719.09622572 -23.90831089 717.94797993 C-23.91267121 716.73985801 -23.91703153 715.53173609 -23.92152399 714.28700441 C-23.93057114 710.94044243 -23.9262334 707.59438784 -23.91619013 704.24786132 C-23.90856721 700.60453389 -23.91836484 696.96124585 -23.92592013 693.31792402 C-23.93674982 686.93478452 -23.93642981 680.55172115 -23.92877865 674.16857815 C-23.91743203 664.67663727 -23.92323198 655.18476062 -23.93240357 645.69282018 C-23.94820407 628.74032791 -23.94683031 611.78786954 -23.93816683 594.83537404 C-23.93062246 580.0000343 -23.92864899 565.164707 -23.93223476 550.32936573 C-23.93246392 549.34559795 -23.93269307 548.36183017 -23.93292917 547.34825124 C-23.93386318 543.3548947 -23.93481838 539.36153816 -23.93580847 535.36818163 C-23.94498706 497.90153038 -23.93666254 460.43490073 -23.92051777 422.96825282 C-23.90628078 389.67574498 -23.90755466 356.38327158 -23.92190075 323.09076405 C-23.93796195 285.69297587 -23.94433614 248.29520678 -23.93506396 210.89741564 C-23.93410179 206.91130257 -23.93316327 202.9251895 -23.93223476 198.93907642 C-23.93199753 197.95758174 -23.9317603 196.97608706 -23.93151588 195.96485012 C-23.92810235 181.13822997 -23.93209636 166.31162362 -23.93967342 151.48500538 C-23.94824522 134.62778659 -23.94611947 117.77060703 -23.92983119 100.91339314 C-23.92101431 91.47706789 -23.92045885 82.04082759 -23.93176972 72.60450453 C-23.93849015 66.3033401 -23.93432234 60.00224387 -23.92125541 53.70108956 C-23.91411125 50.10964872 -23.91169509 46.51837681 -23.92247336 42.92694122 C-23.93396605 39.05802472 -23.92227447 35.18937506 -23.90831089 31.32046223 C-23.91533439 30.20598837 -23.92235789 29.09151451 -23.92959422 27.94326872 C-23.86765136 19.39001871 -22.82213738 11.42557099 -16.53078747 5.13422108 C-10.8623888 0.96968328 -6.8894597 -0.0140436 0 0 Z " fill="#1D2858" transform="translate(2082.5307874679565,-0.13422107696533203)"/>
<path d="M0 0 C1.89209441 -0.00504895 3.78418404 -0.01228046 5.67626274 -0.02149814 C10.86030673 -0.04039735 16.04387788 -0.02819967 21.2279098 -0.01077521 C26.82441984 0.00260791 32.42086112 -0.01284163 38.0173645 -0.02459717 C48.97430191 -0.04297026 59.93106092 -0.03446387 70.88799275 -0.01650894 C79.79216133 -0.00248125 88.69628149 0.00140948 97.60046005 -0.00195122 C98.86791082 -0.00242866 100.13536158 -0.0029061 101.44121995 -0.00339801 C104.01602477 -0.00442434 106.59082958 -0.0054797 109.16563438 -0.00656378 C132.61727344 -0.01538876 156.06879618 0.00325877 179.52040725 0.03396646 C200.92394747 0.06183285 222.32737409 0.06678707 243.73092651 0.05177307 C249.21313534 0.04795055 254.69534417 0.04415574 260.17755318 0.04060268 C260.85250316 0.04016487 261.52745314 0.03972706 262.22285615 0.03927597 C280.11548762 0.02803471 298.00810875 0.03545884 315.9007386 0.04848343 C318.46544066 0.05032782 321.03014274 0.05216255 323.59484482 0.0539875 C324.85673175 0.05489959 326.11861868 0.05581168 327.4187446 0.05675141 C336.31381189 0.0623589 345.20885044 0.0590477 354.10391617 0.05244255 C364.94156704 0.04471437 375.77909577 0.05144368 386.616722 0.07661759 C392.14682124 0.08912368 397.67673021 0.09524551 403.2068367 0.08407593 C408.26852175 0.07404539 413.3298271 0.08246813 418.39146589 0.10565711 C420.22305392 0.11082218 422.0546759 0.10924418 423.8862492 0.10026246 C426.37616399 0.08906753 428.86479492 0.1025045 431.35463142 0.12203121 C432.06554705 0.11295239 432.77646268 0.10387358 433.50892121 0.09451964 C439.88155482 0.1919252 444.93108333 2.44843273 449.70602417 6.55787659 C450.24485229 7.19982971 450.78368042 7.84178284 451.33883667 8.50318909 C451.89313354 9.13998596 452.44743042 9.77678284 453.01852417 10.43287659 C457.15733247 16.71939081 456.75445837 23.31387956 456.73849487 30.56520081 C456.74616127 32.36140366 456.74616127 32.36140366 456.75398254 34.19389343 C456.76547699 37.46674576 456.76795588 40.73944051 456.76541924 44.01230764 C456.76434652 46.75069574 456.76924067 49.4890607 456.77402467 52.22744381 C456.78510559 58.69160972 456.78556545 65.15571751 456.7795105 71.61988831 C456.77347322 78.27392501 456.78577858 84.92775013 456.80708057 91.58175075 C456.82473291 97.30765305 456.83069216 103.03348822 456.82744282 108.7594167 C456.82563536 112.17348496 456.82821196 115.58740231 456.84215736 119.00144577 C456.85451379 122.81192502 456.84773403 126.62191668 456.83615112 130.43238831 C456.84379486 131.55369141 456.8514386 132.67499451 456.85931396 133.83027649 C456.80513245 141.90756136 455.77138988 148.66896431 450.21383667 154.94068909 C449.67243042 155.5761969 449.13102417 156.21170471 448.57321167 156.86647034 C442.11780856 162.25792738 435.46745866 162.05130558 427.42271423 161.98895264 C426.21208531 161.99151591 425.00145639 161.99407919 423.75414175 161.99672014 C420.40629511 162.00079848 417.05897783 161.99145658 413.71119535 161.97638595 C410.09642469 161.963405 406.48166975 161.9678165 402.86688232 161.97009277 C396.60819202 161.97166421 390.3495957 161.9622686 384.09092903 161.94537926 C375.04201417 161.92097621 365.99314465 161.91318265 356.94420045 161.90941528 C342.26216217 161.90285285 327.58017395 161.88289732 312.89816284 161.85450745 C298.63774868 161.8269615 284.37734819 161.80576495 270.11691284 161.79298401 C269.22862543 161.79218002 268.34033802 161.79137602 267.42513281 161.79054767 C260.47792315 161.78430923 253.5307132 161.77843852 246.58350313 161.77268398 C212.54356835 161.74439375 178.50375893 161.68403632 144.46383667 161.62818909 C144.46383667 204.52818909 144.46383667 247.42818909 144.46383667 291.62818909 C161.98477417 291.58178284 179.50571167 291.53537659 197.55758667 291.48756409 C208.64092235 291.46713201 219.72424442 291.44771126 230.80758667 291.43287659 C236.62920171 291.42504527 242.45081632 291.41696339 248.27243042 291.40846252 C249.00206057 291.40740753 249.73169071 291.40635253 250.48343086 291.40526557 C262.25804007 291.38787508 274.03257102 291.35634356 285.80713385 291.3195779 C297.89378024 291.28215293 309.9803857 291.25994995 322.06708765 291.25183511 C328.85486267 291.2468423 335.64247468 291.23484808 342.43019104 291.20526886 C348.81920108 291.17811704 355.20796075 291.16974379 361.59702301 291.17575836 C363.94155996 291.17465804 366.28610529 291.16670305 368.63059235 291.15136719 C371.83357424 291.1314436 375.03561288 291.13625928 378.23861694 291.14717102 C379.1647056 291.13551965 380.09079425 291.12386829 381.04494619 291.11186385 C387.92526271 291.17514787 393.42226686 292.72754143 398.48727417 297.55787659 C398.93328979 298.19982971 399.37930542 298.84178284 399.83883667 299.50318909 C400.30032104 300.13998596 400.76180542 300.77678284 401.23727417 301.43287659 C404.90355954 307.99482683 404.75462302 314.23908801 404.73849487 321.56520081 C404.74616127 323.36140366 404.74616127 323.36140366 404.75398254 325.19389343 C404.76547699 328.46674576 404.76795588 331.73944051 404.76541924 335.01230764 C404.76434652 337.75069574 404.76924067 340.4890607 404.77402467 343.22744381 C404.78510559 349.69160972 404.78556545 356.15571751 404.7795105 362.61988831 C404.77347322 369.27392501 404.78577858 375.92775013 404.80708057 382.58175075 C404.82473291 388.30765305 404.83069216 394.03348822 404.82744282 399.7594167 C404.82563536 403.17348496 404.82821196 406.58740231 404.84215736 410.00144577 C404.85451379 413.81192502 404.84773403 417.62191668 404.83615112 421.43238831 C404.84379486 422.55369141 404.8514386 423.67499451 404.85931396 424.83027649 C404.80665864 432.68004071 403.73871506 438.24836976 399.27633667 444.87818909 C393.85774306 450.1763695 388.5756406 452.07524823 381.04494619 452.14451432 C380.11885754 452.13286296 379.19276889 452.12121159 378.23861694 452.10920715 C377.23539477 452.11262485 376.23217259 452.11604255 375.19854975 452.11956382 C371.85113725 452.12613022 368.50453414 452.10418641 365.15719604 452.08229065 C362.75210591 452.08116191 360.34701439 452.08179655 357.94192505 452.08406067 C352.09816483 452.0850887 346.25466788 452.06777546 340.41096777 452.04231003 C333.60835725 452.01366038 326.8057836 452.00772456 320.0031212 452.00315735 C307.87278337 451.99441365 295.74255345 451.96782327 283.61227417 451.9299469 C271.83233164 451.89320281 260.05241861 451.8649487 248.27243042 451.84791565 C247.53830366 451.84684366 246.8041769 451.84577167 246.04780388 451.8446672 C239.66145767 451.83541519 233.27511062 451.82680428 226.88876343 451.81825638 C199.41368626 451.78065142 171.93889531 451.70095999 144.46383667 451.62818909 C144.46383667 497.16818909 144.46383667 542.70818909 144.46383667 589.62818909 C176.44934448 589.55857971 176.44934448 589.55857971 209.08102417 589.48756409 C222.5706088 589.46713179 236.06018393 589.44768659 249.54977417 589.43287659 C256.63538652 589.42504529 263.72099852 589.41696341 270.80661011 589.40846252 C272.13867941 589.40688003 272.13867941 589.40688003 273.49765921 589.40526557 C287.82797857 589.38787599 302.15823363 589.35634494 316.48851489 589.3195779 C331.19906059 589.28215045 345.90957267 589.25994942 360.62016404 589.25183511 C369.69486122 589.24635108 378.7693767 589.22904032 387.84401794 589.19652322 C394.06978237 589.17535306 400.29545309 589.1689947 406.52125089 589.17418358 C410.11138671 589.17674148 413.70120537 589.17286518 417.29128456 589.15136719 C421.18964685 589.12819449 425.08759943 589.13626216 428.98602295 589.14717102 C430.67574779 589.12969397 430.67574779 589.12969397 432.39960849 589.11186385 C440.39192292 589.17222764 447.50405288 590.49336026 453.90133667 595.55787659 C454.41696167 596.19982971 454.93258667 596.84178284 455.46383667 597.50318909 C456.00008667 598.13998596 456.53633667 598.77678284 457.08883667 599.43287659 C461.12605961 605.87867002 460.76014382 612.48550423 460.75436401 619.84059143 C460.76108124 621.06732071 460.76779846 622.29404999 460.77471924 623.55795288 C460.79043163 626.91140958 460.79707243 630.26461857 460.79835081 633.61809492 C460.79977573 635.71642706 460.80405175 637.8147335 460.80934525 639.91305923 C460.82782818 647.24259837 460.83601796 654.57206492 460.83444214 661.90162659 C460.83324091 668.71930771 460.85434382 675.53667218 460.88592947 682.3542732 C460.91213201 688.22030313 460.92280779 694.08622987 460.92153132 699.95231783 C460.92102289 703.45027799 460.9266397 706.94795647 460.94788742 710.445858 C460.97095548 714.34969565 460.96172454 718.25310309 460.94967651 722.15699768 C460.96091553 723.306353 460.97215454 724.45570831 460.98373413 725.63989258 C460.91964821 733.82100228 459.48676212 738.93350242 454.21383667 745.37818909 C448.34696625 750.17835579 442.92325737 752.23116989 435.28657532 752.13155365 C434.49971269 752.13736741 433.71285007 752.14318118 432.90214312 752.14917111 C430.27322229 752.16373487 427.64524046 752.14990318 425.0163269 752.13612366 C423.10946139 752.14073401 421.20259943 752.14708782 419.2957449 752.15503263 C414.06164064 752.17173059 408.82782812 752.16347736 403.59372282 752.15108776 C397.94673912 752.14204157 392.29980575 752.15600488 386.65283203 752.16700745 C375.59270888 752.1848018 364.53269426 752.18094856 353.47256684 752.16935688 C344.48444874 752.16032646 335.49636108 752.15909687 326.50823975 752.16345215 C325.22941656 752.16406508 323.95059337 752.16467801 322.63301796 752.16530952 C320.03518207 752.16658841 317.43734619 752.16788526 314.83951032 752.16919988 C291.1694221 752.1802831 267.49940378 752.16878582 243.82932685 752.1478295 C222.22471769 752.12884728 200.62020283 752.1305458 179.01559448 752.14967346 C154.73851356 752.17109539 130.46149938 752.17950971 106.18440723 752.16722441 C103.5960827 752.1659502 101.00775815 752.16469272 98.41943359 752.16345215 C96.50913358 752.1625265 96.50913358 752.1625265 94.56024164 752.16158214 C85.58203868 752.15812722 76.60386917 752.16396067 67.62567139 752.17337036 C56.68550445 752.18458418 45.74545233 752.18156319 34.80529857 752.16024739 C29.22255302 752.14972877 23.63999896 752.14562914 18.05725479 752.15884399 C12.94738672 752.17075666 7.83788777 752.16422365 2.72805321 752.14293379 C0.87890619 752.13846299 -0.97027197 752.14074469 -2.819399 752.15043694 C-5.33300994 752.16260217 -7.84535688 752.15012507 -10.35890198 752.13155365 C-11.43575903 752.14560065 -11.43575903 752.14560065 -12.53437078 752.15993142 C-18.93335821 752.06544156 -23.98328915 749.82526199 -28.77835083 745.69850159 C-29.31717896 745.05654846 -29.85600708 744.41459534 -30.41116333 743.75318909 C-30.96546021 743.11639221 -31.51975708 742.47959534 -32.09085083 741.82350159 C-36.22440683 735.54496518 -35.81883353 728.98646548 -35.79063892 721.74582863 C-35.7938454 720.53411515 -35.79705188 719.32240167 -35.80035552 718.0739696 C-35.80723772 714.70345891 -35.80514527 711.33316823 -35.7992998 707.96266972 C-35.79513421 704.29850561 -35.80252877 700.63436197 -35.80845231 696.9702028 C-35.81722445 690.54586031 -35.81852283 684.12154968 -35.81494904 677.69720268 C-35.80964868 668.14398679 -35.81573061 658.59080183 -35.82403197 649.0375893 C-35.83928785 630.98421014 -35.84097541 612.93084499 -35.83850894 594.87746073 C-35.83667763 580.93840507 -35.83843248 566.99935401 -35.84273338 553.06029892 C-35.84333578 551.05902562 -35.84393698 549.05775233 -35.84453699 547.05647903 C-35.84544422 544.04090168 -35.84635289 541.02532434 -35.84726934 538.009747 C-35.8557013 509.96537344 -35.86003288 481.92100162 -35.85586262 453.87662697 C-35.85570624 452.81897973 -35.85554987 451.76133248 -35.85538875 450.67163533 C-35.85458295 445.31083125 -35.85373717 439.95002717 -35.85287545 434.5892231 C-35.85270436 433.52451486 -35.85253327 432.45980661 -35.852357 431.36283449 C-35.85201035 429.20973497 -35.85166182 427.05663545 -35.85131141 424.90353593 C-35.84595347 391.39670418 -35.85388572 357.88989874 -35.87234497 324.3830719 C-35.89305092 286.75385717 -35.90379038 249.12465873 -35.89976948 211.49543798 C-35.89937413 207.48486225 -35.89901258 203.47428652 -35.8986721 199.46371078 C-35.89858137 198.47617658 -35.89849064 197.48864237 -35.89839716 196.47118288 C-35.89723013 181.54935601 -35.90388746 166.62754557 -35.91448402 151.70572281 C-35.92651982 134.73971003 -35.9281137 117.7737335 -35.91569386 100.8077202 C-35.90905198 91.30898794 -35.91072684 81.81034231 -35.92428237 72.31161693 C-35.93250422 65.97002781 -35.92985891 59.62850383 -35.9183071 53.28692005 C-35.91202813 49.67151425 -35.91050766 46.05627793 -35.92217044 42.44088168 C-35.93461332 38.5479125 -35.92390845 34.65520365 -35.91089344 30.76223183 C-35.91820279 29.63785603 -35.92551213 28.51348023 -35.93304297 27.35503244 C-35.88092848 19.87417482 -34.77661373 14.48176378 -30.97366333 7.94068909 C-22.00947927 -0.56379322 -11.59475878 -0.08142028 0 0 Z " fill="#E40032" transform="translate(2099.536163330078,959.3718109130859)"/>
<path d="M0 0 C0.89847656 0.69609375 1.79695312 1.3921875 2.72265625 2.109375 C13.06468635 10.2484686 22.97352033 18.93836792 32.6875 27.8125 C33.71254639 28.72721069 33.71254639 28.72721069 34.75830078 29.66040039 C39.84306527 34.36716541 42.4931703 38.20562626 43.43359375 45.24609375 C43.43488281 46.29925781 43.43617188 47.35242187 43.4375 48.4375 C43.45683594 49.48808594 43.47617187 50.53867188 43.49609375 51.62109375 C42.10313129 61.10859395 35.8774609 66.59626658 29.1875 73 C22.20747251 79.69255445 22.20747251 79.69255445 15.67578125 86.8125 C9.9561718 93.50371246 3.50815144 99.54473749 -2.74804688 105.72753906 C-8.42613715 111.34495234 -14.05250739 116.92047657 -19.23339844 123.00634766 C-23.15371556 127.43051979 -27.42779101 131.5285009 -31.625 135.6875 C-33.0171875 137.07291992 -33.0171875 137.07291992 -34.4375 138.48632812 C-36.16240902 140.20258788 -37.88835167 141.91780997 -39.61572266 143.6315918 C-41.31334035 145.31791058 -43.00193889 147.01332974 -44.68432617 148.71484375 C-49.07731822 153.04994186 -53.68186361 155.21249543 -59.875 155.5625 C-68.61516004 155.1603454 -74.59383691 150.44172974 -80.87597656 144.84399414 C-92.70875834 134.57123543 -106.26844476 126.43817419 -120 119 C-120.68803711 118.62504395 -121.37607422 118.25008789 -122.08496094 117.86376953 C-171.87829287 91.02300081 -231.92766394 88.46367202 -285.59765625 104.33984375 C-313.75737423 113.03406477 -338.61451826 127.77417755 -360 148 C-360.85980469 148.79535156 -361.71960938 149.59070312 -362.60546875 150.41015625 C-374.3479025 161.64425953 -384.00582165 174.8819169 -392 189 C-392.34981934 189.60150879 -392.69963867 190.20301758 -393.06005859 190.82275391 C-424.73040447 245.57937219 -428.45333098 317.19429554 -412.62695312 377.49316406 C-398.46427536 429.08126982 -368.12194902 473.27297341 -321.58984375 500.4375 C-299.98713894 512.67396492 -277.3780548 519.68908348 -253 524 C-252.28553711 524.13277344 -251.57107422 524.26554687 -250.83496094 524.40234375 C-211.95793975 531.38177872 -168.88479848 524.48575495 -133 509 C-132.13955078 508.62891113 -131.27910156 508.25782227 -130.39257812 507.87548828 C-106.90961638 497.57004726 -85.42208253 483.4357227 -65.875 466.875 C-59.70647565 461.76312102 -53.55728586 458.05572607 -45.30200195 458.6550293 C-36.26298421 460.00958779 -30.46976613 467.023978 -24.4375 473.25 C-23.0772168 474.62478516 -23.0772168 474.62478516 -21.68945312 476.02734375 C-17.87953774 479.90080377 -14.12762742 483.79058045 -10.59765625 487.921875 C-5.72343512 493.5872678 -0.31490839 498.75310689 5 504 C16.72362089 515.57359284 16.72362089 515.57359284 20.3984375 519.9140625 C23.54005508 523.5998973 26.94840783 526.95937794 30.4140625 530.3359375 C30.99597351 530.90523987 31.57788452 531.47454224 32.1774292 532.06109619 C34.60172482 534.43136989 37.02687177 536.80027816 39.47167969 539.14941406 C55.51957448 554.59882584 55.51957448 554.59882584 56.625 565 C55.67533968 576.84701248 45.54039909 586.08503237 37.1875 593.5 C35.79426365 594.66976676 34.39814866 595.83610905 33 597 C32.11441406 597.7734375 31.22882812 598.546875 30.31640625 599.34375 C3.53466389 622.65646851 -26.95660105 642.84683548 -59.04394531 658.0625 C-61.10187666 659.04882756 -63.14060571 660.06906699 -65.1796875 661.09375 C-104.8145895 680.76476125 -148.16505846 692.04731689 -192 697 C-192.89509277 697.1045752 -193.79018555 697.20915039 -194.71240234 697.31689453 C-205.34996156 698.38696752 -216.07015132 698.24391491 -226.75 698.25 C-227.81490662 698.25067474 -228.87981323 698.25134949 -229.97698975 698.25204468 C-321.23549452 698.16054845 -415.74249949 669.25714903 -483.5703125 606.24609375 C-485.59168778 604.37745905 -487.64652343 602.586462 -489.75 600.8125 C-499.12298767 592.66207594 -508.11873105 583.60112213 -516 574 C-516.43957031 573.47422363 -516.87914062 572.94844727 -517.33203125 572.40673828 C-530.62718 556.49636163 -542.57517136 539.93007655 -553 522 C-553.62769287 520.92613037 -553.62769287 520.92613037 -554.26806641 519.83056641 C-598.26607088 444.07434567 -616.16143988 349.04553608 -605 262 C-604.84934082 260.80826172 -604.69868164 259.61652344 -604.54345703 258.38867188 C-599.51340851 220.06173154 -589.37680539 182.63291009 -573.14648438 147.48681641 C-572.08317846 145.18042074 -571.04591345 142.8642525 -570.015625 140.54296875 C-562.54354615 123.92937362 -553.22190919 108.06692794 -543 93 C-542.55720703 92.34612305 -542.11441406 91.69224609 -541.65820312 91.01855469 C-534.75797143 80.89537527 -527.40625917 71.24080436 -519.54101562 61.84960938 C-518.14010827 60.16816544 -516.76264421 58.47063812 -515.390625 56.765625 C-508.57665265 48.42621279 -501.02595421 40.81420527 -493.4375 33.1875 C-492.90660767 32.65134064 -492.37571533 32.11518127 -491.82873535 31.56277466 C-484.8871568 24.56802395 -477.72808138 18.13457999 -470 12 C-468.9723462 11.13673526 -467.9489423 10.26832978 -466.93359375 9.390625 C-444.09003624 -10.19978113 -418.00764795 -25.92544585 -390.98583984 -39.02929688 C-389.07091449 -39.96533612 -387.17000351 -40.92565459 -385.26953125 -41.890625 C-345.32464236 -61.82484223 -300.21787112 -71.9663145 -256 -76 C-255.2692627 -76.07057617 -254.53852539 -76.14115234 -253.78564453 -76.21386719 C-164.72063861 -84.56164111 -70.13027843 -54.8294982 0 0 Z " fill="#E40032" transform="translate(630,1025)"/>
<path d="M0 0 C1.32464989 -0.00654048 1.32464989 -0.00654048 2.67606038 -0.0132131 C5.632197 -0.02415252 8.58786558 -0.01375334 11.54399872 -0.00342751 C13.68597544 -0.00688458 15.82795037 -0.01164947 17.96992159 -0.01760924 C23.85386708 -0.030142 29.73766675 -0.02393841 35.62161279 -0.01465058 C41.96797951 -0.0078698 48.31432096 -0.01833651 54.66068268 -0.02659035 C66.37382993 -0.03916857 78.08692526 -0.03806563 89.80007504 -0.02985594 C100.62089496 -0.02230893 111.44169783 -0.02033933 122.26251984 -0.02392387 C122.9803229 -0.02415303 123.69812596 -0.02438218 124.43768064 -0.02461828 C127.35148586 -0.0255523 130.26529107 -0.0265075 133.17909627 -0.02749758 C160.51217084 -0.03667434 187.84521579 -0.02835457 215.17828579 -0.01220688 C239.46146085 0.00202991 263.74458872 0.00075602 288.02776337 -0.01358986 C315.31088278 -0.02965416 342.59397603 -0.03602352 369.87709951 -0.02675307 C372.78559207 -0.02579092 375.69408464 -0.0248524 378.60257721 -0.02392387 C379.67679278 -0.02356803 379.67679278 -0.02356803 380.77270967 -0.02320499 C391.58666236 -0.01979274 402.40059613 -0.02378309 413.2145462 -0.03136253 C425.51064211 -0.03993784 437.80667435 -0.03751213 450.10276473 -0.0215203 C456.3781193 -0.01362819 462.65337802 -0.01056209 468.92873192 -0.02046776 C474.67137764 -0.02939554 480.41383847 -0.02451325 486.15646738 -0.0085351 C488.23576278 -0.0051792 490.31507375 -0.00689948 492.39435917 -0.01416247 C495.21816127 -0.02327074 498.04132818 -0.01394241 500.86509705 0 C502.07912564 -0.01053525 502.07912564 -0.01053525 503.31768006 -0.02128333 C509.84067458 0.04318978 514.97703526 1.59046889 520.62004852 5.00252342 C527.81738835 12.39438594 528.65978698 19.65504348 528.56365204 29.66487694 C528.57438499 31.62267082 528.57438499 31.62267082 528.58533478 33.6200161 C528.60374284 37.17595481 528.59097928 40.73113723 528.57124448 44.28704381 C528.55477157 48.02155214 528.56368266 51.75601581 528.56876373 55.49054527 C528.57327455 61.7589014 528.55747669 68.02695814 528.52947235 74.29524803 C528.49741081 81.52712563 528.49744478 88.75846392 528.51468712 95.99037987 C528.53058666 102.96844865 528.52379762 109.94632099 528.50675011 116.92438126 C528.49990394 119.88474808 528.50088679 122.84495628 528.50829506 125.80532074 C528.51742501 129.94370334 528.49334936 134.08126221 528.46599579 138.21956444 C528.47578461 140.04873657 528.47578461 140.04873657 528.48577118 141.91486168 C528.39589321 149.92406614 527.36541802 155.38872364 522.00286102 161.61971092 C521.3609079 162.15853905 520.71895477 162.69736717 520.05754852 163.25252342 C519.42075165 163.8068203 518.78395477 164.36111717 518.12786102 164.93221092 C513.29712185 168.11259081 508.59138762 168.62662908 502.90901947 168.61803246 C501.88452511 168.62059573 501.88452511 168.62059573 500.83933389 168.62321079 C498.56381888 168.62649004 496.28860251 168.61552811 494.01311493 168.6045742 C492.37678281 168.60400975 490.74045018 168.60432732 489.10411835 168.60545921 C484.67068619 168.60603239 480.23736253 168.59428364 475.80395555 168.5803113 C471.16749403 168.56779822 466.53102994 168.56663298 461.89455414 168.56426048 C453.1186533 168.55804742 444.34280237 168.54163893 435.5669235 168.5215615 C425.57423663 168.49919712 415.58154735 168.48820771 405.58884168 168.47817063 C385.03671612 168.45727257 364.48463547 168.42209994 343.93254852 168.37752342 C343.93425726 170.16307711 343.93425726 170.16307711 343.93600053 171.98470259 C343.98600148 224.43940758 344.03228564 276.89411466 344.05957794 329.3488369 C344.05999211 330.14282442 344.06040628 330.93681193 344.06083301 331.75485968 C344.06981147 349.00983989 344.07812206 366.26482037 344.08574451 383.51980123 C344.08948656 391.98148993 344.09337622 400.44317857 344.09734344 408.90486717 C344.09773572 409.74691238 344.098128 410.58895759 344.09853216 411.45651931 C344.11131899 438.75563156 344.133855 466.05472519 344.16144019 493.35382616 C344.18973321 521.40433757 344.20820375 549.45483868 344.21429349 577.50536412 C344.21515797 581.46619398 344.21613488 585.42702381 344.21718025 589.38785362 C344.21738252 590.16741111 344.21758479 590.9469686 344.21779319 591.75014904 C344.22134002 604.30505063 344.23525874 616.85992039 344.25304462 629.414809 C344.27069921 642.03297077 344.27745425 654.65110095 344.27305266 667.26927465 C344.27097006 674.10759968 344.27373455 680.94583932 344.29016495 687.78414726 C344.30472978 694.04151239 344.305523 700.2987208 344.29524521 706.55609304 C344.29397434 708.82271074 344.29780865 711.0893381 344.30719807 713.35593671 C344.31920407 716.43246501 344.31276821 719.50842452 344.30169201 722.58494377 C344.30957305 723.46877849 344.31745409 724.35261321 344.32557395 725.2632308 C344.26972472 732.10927964 343.15469189 737.73497455 338.62004852 743.12752342 C332.70332457 748.08105975 328.50608831 750.49527708 320.77918243 750.52469444 C319.49084 750.53184975 318.20249756 750.53900505 316.87511444 750.54637718 C315.44414544 750.54921744 314.01317619 750.55192917 312.58220673 750.55452538 C311.07752068 750.56079086 309.57283619 750.56743774 308.06815338 750.5744381 C303.12322313 750.59547331 298.17829259 750.60584094 293.23332977 750.61580467 C291.53001832 750.61985263 289.82670704 750.62396956 288.12339592 750.62815475 C280.11969244 750.64720636 272.11599817 750.66143665 264.11227638 750.66976672 C254.87934546 750.67953516 245.64665454 750.70584443 236.41380817 750.74626762 C229.27397692 750.77645214 222.13421437 750.79123787 214.99432057 750.79454774 C210.73172717 750.79689585 206.46939016 750.80582477 202.20686531 750.83100891 C198.19390289 750.85433525 194.18136484 750.85850473 190.16835213 750.84824753 C188.69943071 750.84775314 187.23048808 750.85404505 185.76163101 750.86780357 C176.50485459 750.9496242 169.96943977 750.63343328 162.69036102 744.48299217 C162.1515329 743.85006248 161.61270477 743.2171328 161.05754852 742.56502342 C160.50325165 741.93982811 159.94895477 741.3146328 159.37786102 740.67049217 C155.64512746 734.74856081 155.6462024 728.50239453 155.68645287 721.72360897 C155.68414518 720.76497768 155.68183749 719.80634638 155.67945987 718.81866565 C155.67415733 715.59973548 155.68314621 712.38100454 155.69203949 709.16208458 C155.69116748 706.83378011 155.68941657 704.50547583 155.68686116 702.1771726 C155.68285245 696.4453795 155.6881523 690.71364741 155.69734251 684.98186151 C155.70782204 678.11597631 155.7066533 671.25010576 155.7050536 664.38421451 C155.70242646 651.71350352 155.70910611 639.04281338 155.72108841 626.37210846 C155.73292212 613.82637555 155.74062024 601.28065133 155.74279404 588.73491287 C155.74293152 587.95488081 155.743069 587.17484875 155.74321064 586.37117936 C155.74388731 582.40979679 155.74449007 578.44841422 155.74506439 574.48703163 C155.7492653 546.42798066 155.76274028 518.36894104 155.78166962 490.30989647 C155.80003808 463.0507825 155.81420551 435.79167164 155.82268524 408.53255272 C155.82294829 407.69231992 155.82321135 406.85208713 155.82348237 405.98639273 C155.82611941 397.54843594 155.82867104 389.11047912 155.83116009 380.67252228 C155.83623253 363.48340445 155.84187503 346.29428683 155.84786224 329.1051693 C155.84827411 327.91967545 155.84827411 327.91967545 155.8486943 326.71023222 C155.86709588 273.93265785 155.89882791 221.15508996 155.93254852 168.37752342 C154.66171339 168.38305418 154.66171339 168.38305418 153.36520481 168.38869667 C132.73274918 168.47710536 112.10032629 168.54326111 91.46772099 168.58477211 C81.4898631 168.60538105 71.51213179 168.63346977 61.53435516 168.67928123 C52.83584107 168.71920005 44.13741868 168.74496836 35.43881553 168.7538774 C30.83464227 168.75908361 26.23073128 168.77128527 21.62664223 168.80044365 C17.28871669 168.82769252 12.95116027 168.83594937 8.61315727 168.82995415 C7.02532314 168.83105016 5.43747604 168.8389476 3.84971619 168.85434532 C-14.12246187 169.02001432 -14.12246187 169.02001432 -20.93167019 162.62734413 C-25.41666754 157.81725139 -27.31241904 153.28649258 -27.33487701 146.66699791 C-27.34340698 145.52736092 -27.35193695 144.38772392 -27.3607254 143.21355247 C-27.35981903 141.97239677 -27.35891266 140.73124107 -27.35797882 139.45247459 C-27.36469604 138.13810921 -27.37141327 136.82374382 -27.37833405 135.46954918 C-27.3959743 131.87023065 -27.40068862 128.27100727 -27.40196562 124.67164969 C-27.40338904 122.42038727 -27.40766229 120.1691489 -27.41296005 117.91789246 C-27.4314547 110.05668291 -27.43963149 102.19554111 -27.43805695 94.33431053 C-27.43685611 87.01849055 -27.45794839 79.70296585 -27.48954427 72.38722056 C-27.51573994 66.09658686 -27.52642285 59.8060494 -27.52514613 53.51536161 C-27.5246374 49.76252976 -27.53027052 46.00996036 -27.55150223 42.25718307 C-27.57455554 38.06817042 -27.56534368 33.87981463 -27.55329132 29.69075584 C-27.56453033 28.45567284 -27.57576935 27.22058983 -27.58734894 25.94808006 C-27.52509118 17.42762331 -26.46434245 11.85161647 -20.31745148 5.56502342 C-13.65929832 1.08357418 -7.83021067 -0.06794997 0 0 Z " fill="#1D2859" transform="translate(27.06745147705078,-0.37752342224121094)"/>
<path d="M0 0 C1.26577881 -0.00852997 2.53155762 -0.01705994 3.83569336 -0.02584839 C5.22584546 -0.02514946 6.61599747 -0.02422646 8.00614929 -0.02310181 C9.4801009 -0.02909066 10.95404938 -0.03589703 12.42799377 -0.04345703 C16.42193391 -0.0610885 20.41578828 -0.06581122 24.40976357 -0.0670886 C26.90811502 -0.06851244 29.40644482 -0.07278646 31.90479088 -0.07808304 C40.62950901 -0.09657428 49.35416612 -0.10475484 58.0789032 -0.10317993 C66.19734854 -0.10197896 74.31552785 -0.12307487 82.4339059 -0.15466726 C89.41586339 -0.18086407 96.39773418 -0.19154579 103.37974042 -0.19026911 C107.54449811 -0.18976045 111.70901929 -0.1953901 115.8737278 -0.21662521 C119.79318795 -0.23606508 123.71218737 -0.23609325 127.63166428 -0.22159195 C129.06468444 -0.2195098 130.49773389 -0.22416919 131.93070412 -0.23631287 C140.65900739 -0.30545072 148.67589883 -0.18499952 155.44716358 5.92959023 C161.84124886 12.54666144 163.05480448 20.18283906 162.97563457 29.01315308 C162.97909611 29.96956147 162.98255764 30.92596986 162.98612407 31.91136032 C162.99406604 35.11679563 162.9806049 38.32177905 162.96725464 41.52719116 C162.96856291 43.84810969 162.97118971 46.16902778 162.97502214 48.4899435 C162.98173484 54.86820831 162.96972346 61.24632218 162.95468795 67.62456775 C162.94159982 73.79614936 162.94556914 79.96773229 162.94773348 86.13932355 C162.95167292 98.76229556 162.94165956 111.38522042 162.92368126 124.00817871 C162.90592734 136.50563795 162.89438285 149.00307755 162.89112282 161.50054932 C162.8909166 162.27773994 162.89071038 163.05493057 162.89049791 163.85567243 C162.88948291 167.80266594 162.88857876 171.74965946 162.88771728 175.69665301 C162.88141684 203.64978196 162.86120696 231.60288526 162.83280945 259.55599976 C162.80525431 286.71127181 162.78400437 313.86653684 162.77128601 341.02182007 C162.77089143 341.85893323 162.77049685 342.69604638 162.77009032 343.55852661 C162.76613474 351.96519695 162.7623073 360.37186735 162.75857374 368.7785378 C162.7509652 385.90374034 162.74250144 403.02894242 162.73352051 420.15414429 C162.7329027 421.33521574 162.7329027 421.33521574 162.73227242 422.54014722 C162.70467261 475.11591744 162.65707485 527.69167301 162.60649109 580.26742554 C163.15496197 580.26552694 163.70343284 580.26362833 164.26852405 580.2616722 C196.79412041 580.14971865 229.31966565 580.06396092 261.84541034 580.01209889 C265.7530756 580.00584555 269.66074047 579.99937392 273.56840515 579.99276733 C274.3463325 579.99145578 275.12425985 579.99014423 275.92576076 579.98879293 C288.51262616 579.96705176 301.09937707 579.92763739 313.68617462 579.88166156 C326.60677755 579.83486096 339.52732063 579.80712254 352.44800484 579.79698306 C360.41722315 579.79013134 368.38611783 579.76851146 376.35523649 579.7278432 C382.47176466 579.69822409 388.58804744 579.69516049 394.70463753 579.70188713 C397.20959653 579.70051311 399.71456794 579.69058779 402.21945381 579.67139816 C405.64520824 579.64644416 409.06958898 579.65253042 412.49537659 579.66615295 C413.48178568 579.65158875 414.46819477 579.63702454 415.48449504 579.62201899 C422.48126967 579.69699083 427.71484364 581.46350887 433.60649109 585.26742554 C435.86039734 587.61898804 435.86039734 587.61898804 437.16899109 589.89242554 C437.62403015 590.64781616 438.07906921 591.40320679 438.54789734 592.18148804 C440.40010151 595.83121877 440.73760713 598.68767959 440.76039124 602.72398376 C440.7689917 603.85798111 440.77759216 604.99197845 440.78645325 606.16033936 C440.7907132 607.40554352 440.79497314 608.65074768 440.79936218 609.9336853 C440.80753967 611.24454605 440.81571716 612.5554068 440.82414246 613.9059906 C440.85034377 618.2569168 440.8656728 622.6078525 440.87992859 626.95883179 C440.88528992 628.45902957 440.89066743 629.9592273 440.89606094 631.45942497 C440.91769101 637.70370558 440.93642439 643.94798363 440.94768333 650.19229221 C440.96389974 659.12617295 440.99701933 668.05961719 441.05408418 676.9933334 C441.09287714 683.28224543 441.11232731 689.57104121 441.1176039 695.86006969 C441.12124594 699.61197017 441.13314277 703.36340491 441.16570663 707.11517525 C441.19595131 710.65054149 441.20204181 714.18516427 441.19032288 717.72063255 C441.18999959 719.62243015 441.21435833 721.52418299 441.23970032 723.42581177 C441.18025251 731.67095607 439.78563675 738.61327095 434.12830162 744.91362858 C428.8795233 749.58292215 424.13778215 750.51722436 417.27248096 750.52748775 C416.54033028 750.53129343 415.80817959 750.5350991 415.05384251 750.53902009 C412.59319662 750.5493509 410.13278076 750.54542697 407.67211914 750.5415802 C405.89301474 750.5460318 404.11391232 750.55134559 402.33481282 750.55744892 C397.43992058 750.5716488 392.54509178 750.57329184 387.65018189 750.57285202 C382.37326053 750.57449848 377.09636543 750.58756182 371.81945801 750.5990448 C360.27812879 750.62190742 348.73681794 750.62981679 337.19546914 750.63487124 C329.98993102 750.63812685 322.78439824 750.64464851 315.57886314 750.65187263 C295.63142347 750.67144034 275.68398878 750.68784351 255.73653889 750.69074917 C254.45972205 750.69093674 253.18290522 750.69112431 251.86739696 750.69131756 C249.27893746 750.69168381 246.69047796 750.69204751 244.10201845 750.69240867 C242.81709061 750.69259148 241.53216278 750.6927743 240.20829773 750.69296265 C238.27855528 750.69323347 238.27855528 750.69323347 236.30982812 750.69350976 C215.46230747 750.69705167 194.61489009 750.72407439 173.76740525 750.76146054 C152.36701828 750.7995313 130.96668258 750.81890656 109.56626099 750.81920868 C97.54932371 750.81979353 85.53250962 750.82830353 73.51560402 750.85720634 C63.28321679 750.88170373 53.05099768 750.88901417 42.81858907 750.87395882 C37.5980805 750.86678322 32.37790402 750.86767561 27.15743256 750.89036942 C22.37603483 750.91095533 17.59522459 750.90836248 12.81383326 750.88749457 C11.08635557 750.88399895 9.35883553 750.88891274 7.63141338 750.90319901 C-1.55183288 750.97423745 -9.63978697 750.90654062 -17.39350891 745.26742554 C-19.64741516 742.91586304 -19.64741516 742.91586304 -20.95600891 740.64242554 C-21.6385675 739.5093396 -21.6385675 739.5093396 -22.33491516 738.35336304 C-24.10146521 734.87241202 -24.51912073 732.15934285 -24.52231008 728.31302243 C-24.52558227 727.28200364 -24.52885447 726.25098485 -24.53222582 725.18872306 C-24.53074219 724.05017954 -24.52925857 722.91163603 -24.52772999 721.73859119 C-24.53008222 720.52865087 -24.53243445 719.31871056 -24.53485796 718.07210538 C-24.54039467 714.69264182 -24.54141821 711.31323005 -24.54058055 707.93376554 C-24.54074971 704.26505009 -24.54665201 700.59634323 -24.55182141 696.92763203 C-24.56116109 689.6417335 -24.56507175 682.35584104 -24.56734038 675.06993727 C-24.57029887 666.34678372 -24.57899417 657.62363827 -24.58775466 648.90048896 C-24.60861399 627.81449114 -24.61907098 606.72849191 -24.62788426 585.64248618 C-24.63208843 575.67126976 -24.63731071 565.70005395 -24.64256879 555.72883804 C-24.66045979 521.60959546 -24.67545693 487.49035272 -24.68288898 453.37110615 C-24.68336374 451.22848817 -24.68383963 449.08587019 -24.68431665 446.94325222 C-24.68455302 445.88068595 -24.6847894 444.81811967 -24.68503294 443.72335443 C-24.68623416 438.33968867 -24.6874496 432.95602292 -24.68867493 427.57235718 C-24.68891508 426.50394454 -24.68915523 425.4355319 -24.68940265 424.33474313 C-24.69729803 389.68339857 -24.72073437 355.03208823 -24.75323087 320.38075861 C-24.7875095 283.76241064 -24.80723828 247.14408268 -24.81053323 210.52571839 C-24.81095078 206.50779386 -24.81143034 202.48986933 -24.81195641 198.47194481 C-24.8120796 197.48258795 -24.81220279 196.49323109 -24.81232971 195.47389372 C-24.81466414 179.53549125 -24.83033757 163.59712843 -24.85079825 147.65874011 C-24.87102917 131.64558978 -24.87654651 115.63248719 -24.86702762 99.61932645 C-24.86180207 90.10058418 -24.86773974 80.58200059 -24.88956229 71.06328108 C-24.90303338 64.70825431 -24.90202618 58.35333722 -24.88916033 51.99830945 C-24.88223901 48.37513244 -24.88167773 44.7522596 -24.89872042 41.1291093 C-24.91692254 37.2277511 -24.90424694 33.32684244 -24.88849354 29.42546558 C-24.89871574 28.2986279 -24.90893795 27.17179022 -24.91946992 26.01080593 C-24.85126481 18.31243356 -23.61580269 13.01154826 -18.46382141 7.02523804 C-17.82186829 6.48640991 -17.17991516 5.94758179 -16.51850891 5.39242554 C-15.88171204 4.83812866 -15.24491516 4.28383179 -14.58882141 3.71273804 C-9.98095437 0.67908892 -5.42972449 0.01660006 0 0 Z " fill="#1D2859" transform="translate(1454.3935089111328,-0.267425537109375)"/>
<path d="M0 0 C1.29109177 -0.00852997 2.58218353 -0.01705994 3.91239929 -0.02584839 C5.33610547 -0.02514942 6.75981155 -0.02422638 8.18351746 -0.02310181 C9.68850029 -0.02908867 11.19348006 -0.03589459 12.69845581 -0.04345703 C16.78122776 -0.06110915 20.86391585 -0.0658121 24.94672227 -0.0670886 C27.49950101 -0.06851132 30.05225851 -0.07278322 32.60503197 -0.07808304 C41.51662421 -0.09658139 50.42815665 -0.10475398 59.33976746 -0.10317993 C67.63714116 -0.10197889 75.93425458 -0.12307423 84.23156244 -0.15466726 C91.36295186 -0.18084996 98.49425639 -0.19154638 105.6256935 -0.19026911 C109.88153498 -0.18976002 114.13714515 -0.19541364 118.39293861 -0.21662521 C122.39774005 -0.23604111 126.40209035 -0.23610947 130.40690804 -0.22159195 C131.87259839 -0.21950682 133.33831722 -0.22418716 134.80395889 -0.23631287 C143.84102091 -0.30620709 150.54950725 -0.09610357 157.62956238 6.01351929 C158.29858582 6.85076538 158.29858582 6.85076538 158.98112488 7.70492554 C159.67335144 8.53830444 159.67335144 8.53830444 160.37956238 9.38851929 C162.94337958 13.31589532 163.8560874 16.82886243 163.85912454 21.48946172 C163.86740377 23.04918217 163.86740377 23.04918217 163.87585026 24.64041212 C163.87173962 25.77851465 163.86762899 26.91661717 163.86339378 28.08920765 C163.86689986 29.30652078 163.87040593 30.52383391 163.87401825 31.77803531 C163.88174011 35.16891033 163.88047078 38.5595694 163.87546271 41.95043554 C163.87220142 45.63494094 163.88047416 49.31942316 163.88728106 53.00392121 C163.89759972 59.46552436 163.90042162 65.92709754 163.89836884 72.38870811 C163.89532369 81.99735017 163.903632 91.60595897 163.91411809 101.21459457 C163.93348014 119.37266306 163.93908713 137.53072028 163.9402322 155.68879787 C163.94115056 169.7089227 163.94526346 183.7290431 163.95163345 197.74916649 C163.95342848 201.78184435 163.95520811 205.81452222 163.95698321 209.8472001 C163.95764635 211.35091512 163.95764635 211.35091512 163.95832289 212.88500823 C163.97063473 241.0904924 163.97852367 269.29597502 163.97763634 297.50146198 C163.9775896 299.09722903 163.9775896 299.09722903 163.97754192 300.7252338 C163.9773757 306.1174949 163.97717762 311.509756 163.97697251 316.90201709 C163.97693262 317.97297944 163.97689272 319.04394178 163.97685163 320.14735752 C163.97677075 322.31310507 163.97668716 324.47885261 163.97660084 326.64460015 C163.97537512 360.34595959 163.99039102 394.04727879 164.01774597 427.74862671 C164.04845139 465.59354703 164.06567941 503.43844092 164.06381953 541.28337449 C164.06367026 545.31699542 164.06357285 549.35061635 164.06351089 553.38423729 C164.06348759 554.3774506 164.06346428 555.37066391 164.06344026 556.39397459 C164.06337866 572.39363327 164.07616313 588.3932571 164.09337542 604.39290541 C164.11030971 620.46630612 164.11232305 636.53965571 164.09915678 652.61306039 C164.09175294 662.16735813 164.09546827 671.72150079 164.11504146 681.27578217 C164.12700714 687.65444366 164.12448856 694.03299237 164.11010047 700.41164861 C164.10230848 704.04828459 164.10086837 707.68461964 164.11701517 711.32123486 C164.13424954 715.23701159 164.1206169 719.15233305 164.10390282 723.06812 C164.11383918 724.19919903 164.12377554 725.33027805 164.134013 726.4956322 C164.05975643 734.68062269 162.65388381 740.2196666 156.79362488 746.07992554 C148.56394956 751.72774193 141.69003354 751.70522184 131.89347839 751.67147827 C130.39805085 751.67718628 128.90262767 751.6841522 127.4072113 751.692276 C123.35963393 751.71017501 119.31227373 751.70904522 115.2646687 751.70333362 C111.88003867 751.70023707 108.49545008 751.70633939 105.11082596 751.71237236 C97.12346521 751.72640524 89.13621145 751.72486659 81.14884949 751.71347046 C72.92072033 751.70198992 64.69291714 751.71606654 56.46483094 751.74286693 C49.38859155 751.76504885 42.3124543 751.77165572 35.23618263 751.76579052 C31.01503721 751.76242575 26.79410073 751.76480398 22.5729847 751.78204155 C18.6026075 751.79754852 14.63271194 751.79351401 10.66235352 751.7747364 C9.20956957 751.77106087 7.75674964 751.77412873 6.30399895 751.78462219 C-3.32994534 751.84886984 -9.53221732 751.24514556 -17.14387512 745.01742554 C-23.12725783 737.70440223 -23.97478148 731.44244561 -23.89723969 722.12614536 C-23.90305345 720.91073542 -23.90886721 719.69532547 -23.91485715 718.44308493 C-23.92693427 715.07128352 -23.92112516 711.70037521 -23.90774534 708.32863594 C-23.89759212 704.65982426 -23.91064071 700.99108257 -23.92071867 697.32228082 C-23.93516615 690.89284818 -23.93472679 684.46354987 -23.92453003 678.03411102 C-23.90940828 668.47332801 -23.91713078 658.91265845 -23.92936326 649.35187622 C-23.9504364 632.27669485 -23.94859656 615.20157332 -23.93704761 598.12638626 C-23.92699008 583.18309689 -23.92435638 568.23982946 -23.92913818 553.2965374 C-23.92944372 552.30576914 -23.92974926 551.31500089 -23.93006406 550.29420936 C-23.9313094 546.27246675 -23.93258299 542.25072416 -23.93390312 538.22898158 C-23.94614272 500.49169301 -23.93503974 462.75444258 -23.91351553 425.0171599 C-23.89453418 391.48312971 -23.89622997 357.94916027 -23.9153595 324.41513062 C-23.93677436 286.74889599 -23.94527326 249.08269507 -23.93291044 211.41645521 C-23.93162755 207.40167996 -23.93037619 203.3869047 -23.92913818 199.37212944 C-23.92882187 198.38357251 -23.92850556 197.39501557 -23.92817967 196.37650237 C-23.92362812 181.44257724 -23.928954 166.50867647 -23.9390564 151.57475471 C-23.95048546 134.59489779 -23.94765122 117.61511012 -23.92593342 100.63526184 C-23.91417725 91.13004417 -23.91343735 81.62497641 -23.92851812 72.11976259 C-23.93747844 65.77263581 -23.93192218 59.42562937 -23.91449904 53.07852043 C-23.90497293 49.46077736 -23.90175273 45.8433324 -23.91612297 42.22559858 C-23.93144546 38.32842219 -23.91585905 34.43171678 -23.89723969 30.53454685 C-23.90660435 29.41176542 -23.91596901 28.28898399 -23.92561746 27.13217887 C-23.8509993 19.34924721 -22.52568781 12.99695994 -17.42903137 6.92758179 C-16.45256653 6.13674194 -16.45256653 6.13674194 -15.45637512 5.32992554 C-14.80797668 4.7846521 -14.15957825 4.23937866 -13.49153137 3.67758179 C-9.06498904 0.70182428 -5.29312213 0.01583091 0 0 Z " fill="#E40033" transform="translate(853.3938751220703,959.7325744628906)"/>
</svg>
